/* XPM */
static char *_cdffa61cabd4e1f9209dabc59aa140asdNNroBrC4nYaWKE[] = {
/* columns rows colors chars-per-pixel */
"128 128 55 1 ",
"  c #4F331E",
". c #54331E",
"X c #59351F",
"o c #5B381F",
"O c #4F3421",
"+ c #553622",
"@ c #593622",
"# c #563925",
"$ c #5B3A24",
"% c #573B29",
"& c #5D3D29",
"* c #613D26",
"= c #613E29",
"- c #5E412D",
"; c #5F4330",
": c #644027",
"> c #63422C",
", c #6A452E",
"< c #6D482E",
"1 c #714A2E",
"2 c #644532",
"3 c #6A4631",
"4 c #664935",
"5 c #6C4A34",
"6 c #674A38",
"7 c #6D4D39",
"8 c #704731",
"9 c #734C35",
"0 c #794F37",
"q c #724E3A",
"w c #784F39",
"e c #6E513C",
"r c #755037",
"t c #785037",
"y c #74523C",
"u c #7B553D",
"i c #7D593F",
"p c #755541",
"a c #7B5641",
"s c #765944",
"d c #7D5A43",
"f c #775A48",
"g c #7D5D49",
"h c #7F604B",
"j c #81573E",
"k c #81583F",
"l c #885C3F",
"z c #805741",
"x c #835C43",
"c c #895E44",
"v c #825E49",
"b c #846046",
"n c #8A6046",
"m c #84614A",
"M c #89634A",
/* pixels */
"g:,xg@9xx$rbdoixi$ibq=xx5%iu2-dg%4sx&7au#exx+eyp+ulw@xxtoMM1:bd2=gv=3dd=8vv@tup+yzaXzxy*ccw:nk,=xx*7xx&;xa$qxx#ada#suy#aMr@vM<>v",
"g:,dx@8xgoubs.ibu.kxq*cz5%ai;-xg&;za%4ga+7xu+puu+pju@azt*bnr:hg:=vd=3gv@qzv@yup+uza@jly$nnq-nl>-cc=7bx%4xz$pxx%pdp#sgy.hMr+vm3>v",
"v=>xx@9zi$ubd.ibaXxxy=cx3%xa--db-2ia$3xa+7xz.euu.pxu@zvtoMn1:bh,=dd>2gv=9xmXtapOyxaXzxq$nn9-bx,-cc25bi$4ax$qzz@dau#pgu#gMr.vm,>v",
"m&,xv*9jh$riy#iba$kky=cj5%ui;>ih--zx%3dx#pcz#puu+yxt@vvt*Mn1:bb,=gd==av*5bm%yap+uxp@jcw$nnr&bx2>cc=5bd&4zx$qxc@pgu#sgy+gbr.mM,=v",
"v:3xv*9zdordy.iba+xlw*cz5&ii4-ib--ix-2ih+7nk$yau@aj0@vxt*bM9:mx,=vg==dg#5bm*tas+jxy@xct@clr-lx>2nb:5bx$7ij$pxx%pat+say+gm9#mm3,g",
"m>3xx@9xgouxhouxa@zxw*cl5$ad2-bx;;bk$4id+7Mkoeuu@yjuXzxu@xb1*mx9=gx=3dv#1xb@wap@uka@xxu&nn7$bx4>ln>5bk%eaa@qlx#psy#ssu#gm9@mm,:h",
"g>3gz@9xb$uihoibs@xly*nx5#ia>-bi-;xx%4dd+7bk.yaa@pju@xcw*bn9*xx32fv=3fd&5bm@taa$jxa@ccy$cn7-xl,>nn>4bi$>xx@qxx#eay#pay+gm9@vm>:g",
"v>3xa@0zdouhs#iid@xxw$cx3%ii2-bi->di$2ax%7cx.eaa+acjoxxw@mn9:bx5=gd=3dg$rkm$tad+uxa@ccw@cn5:nx2-ln:4bd#eaa+yxi#yayOpst#dm1$hm,:m",
"v=3dd*8zv$azd#iba@lx9*cz5@xa==vv--aj$3zg$7nx#yxa@azu@mxw*mn9*mx,>gd=,dm$5bm@uxs+jxa@ccq$Mb<-xx4-ib,5bk#eui#yxk$pay+pay#dM1#hb>,g",
"m>,xz*wzz%aad$ilaXlc9*czq@uz2=dv&2xa%4zx%7nk+yau+ajw@zl9oxb9*bm,=gd=,dh$5MMotxs.kky.jcw*ll7:nb,&kx:7bi#7dx@ekx#ydpOsay+hM<ohm,:h",
"x=3xz$wvd@aagoknd$xcq@cc5%az2-zv-2zu#2zz$ynx+yai+aauXxx0$xb1*bx,=gd=,ad$rbmotxa+jxpXjc9@bk5-xx4-xx:5bi#6az$yxbOpguOpay$xM5ohg,,g",
"b=<az$wzv@axdojndoxct@cc5$zz2>vx->zx=2au#7bx.eua+azu@ux0omx<*mx,>ds:3hh$5bmotaa+jxy.ccy@nb,$cx>>xx&6xx#7zx@ykh#psuOpdy#bM7omm,>m",
"v>5xd$wxv@uxa&jndolcq*ccq#zz>=xv--aa-4iu#7xi.euu+pzw@ac0$xa9:bz3>xd=3hg@9bmotasojxq@zcy*nl3$xn,-xk&5xx$7zx#qxz#pdy#fay#hM9$mm>,b",
"x:,xd*wxz$uaaoknbXclw*cc9#zz2&xx--ai#4id#7bi.yuu+uz8@xcu$mdr*bx,>xg=,gb$9bm$uga+jxq@zxq*xn7-cx>-xx&5xx$4az#pzxOpfp#fay$hM9XmM,:x",
"v=<av*wxv@uxhojnxXccw*cx5@zj2>xx&;au$4ui#7bi.yuj+yaw@az0ohx9*bz<>vd=,bh$9bm@uasXjzq@jcy*cc7:bl,-zz&4cx%7ax+7vx#pdy+fay$hM<Xmm,:g",
"v>,dv@wxv@uxd$jnaXlcw*cx5#zz2&xc-2ii$4hio7xk+qju+puw@azw$bxr*bx5>vx=,gg$rmm$txa.jxy@jxy&xb5-Mx2-zx&3bx$4ax#qxg#pfy#smr$mMr@vm,>x",
"v=3zz@wxboiidokxuXlcy*cj3#zj2&xx--ax%2ui#7xk.7uu.pawXul0obxr=mx3,zg=<zg$1MM$tgs$ixa@zcq@nn3-nk>-xk-4bb--ai+eih#pht#sdy%hm9@vm3=v",
"v==va$0cxouid$jkiXcny*cu3$aj>=xx--xu&>id#7bk+7aa.azwXxjj@mx<=md,,vg=3zg-rnMoudd#uxy@zca=bn7&bl>-xk-2ii%4ai$ydd#piy+say$mb7#mm3>z",
"v=3va$8vhouxd$iluXlcy@cj5#wj2-jc;;za&2ua#yck+qua+pz9@ajj$bx1*xa,>mg=,xg&tMMotid.lxy@zxy$cn7&xl>-bl-,bb$7xi#7di#psyOpdy%vx9Xmv,=v",
"v==gz*8xb@tih$iljXcnwXcj7%zz2&zz&>za%2aa$yxk+yuz+azw@djj$mb9&xg,>vv>3ag*rMMotihoixa@czq*bx7:nx2-xx-4bk%7ua$ydb#pay+pdt@gm5ogv>=v",
"v=,zd$9xx$txioika@xct@cj5%ju2&ax;;gd$6ud+ycx.qux.aaw@axjXvx9@mz3=vv>7gm$rMm*uxa.jzq@jly$nx7&xx2-bx:5cx%2ux@qxz%payOpg7+fb1ohv,:d",
"v=3zz*9cm$ubioihz@xcu*cj5@zu3&ad&;dd%4dd#7xx.yjj@azw@ycu@xx9&xg,=vg=,bh@tbm$tas$zxp@jza$xl7&xx>2cx&6cx&2uz&7dx#ssu+pay#gm5Xhv,=g",
"v:,zx@9xh$ubhoikd@kcu$cx5%xu2&xa&&aa&6dd+7xx+euu.pzw@aljogxr*va,3vv=,as$9vm$tds@xxa+jxq&xb7$xx&-lx&4cx%7zz#qxx#pxu+fdy#gm9.hb,*d",
"g=3za*9kx$tkhoiip#kxp$xx5@zu,&ux>-au%2yu+exx+eii@azwXxxu@gx7$vs,,zs=3gd#9Mm$yds@jxy+jxq&nx4&bx>-xl&7cz%7za@pxg#pau+pdy+gm9ohm,,d",
"x=,xz*9xxotbhoxiu+kxu@kx3%az2=zx--aa%2uu#7bk+7ak@acw@dcwovx5*xa,3ga=3dg$qmv$yap@jxy.kxq&xx5&xx>-xx&5bk%3au@pxd%udy+pae#gM5$mm,>d",
"x><xv=9xgXtbboiisXkxp%iu5#du2&jj--uu&2aa.ebx+7xu.azwXzxwXmg9$xa,>zd&3df%9zv$ras@jxy.uxy$bx5&ax->cj&5xx#7zz#5za+pay+pd3+dbr.bm,>x",
"g=,ax*9xgorbdouks.ixp%ia6+ad2&kz-:uu%2aa#4gx+7aa.ajw@zcuXxx1$gx,3dd&6af@7av$9aa+kxy+ucy$bx2&az&2xx=5bx+>au#7au+psy.pa5#fb9obv,,z",
"v=,ux*wzboudhoukp@ixu$ux6+pa2&zx--su%2ua#3xx+7xj.az0@ac0$mx5@zd,=vf&3pa%9ag$yxs+iae.yxq%bx2%ad2&jx$3cd#4au+7xa@say#yu7#gb5.hv,,v",
"v==zx$wzmotbx@uxp+uxp#zx6#za2&xx--ud%2ua$5ax+7xa.axw@axt$hx5$gd,,gd&3pa@7ig$rdd+uk7+uzq#bx5$az2&xx-3xk#6aa+eaa+pat#pa7#dm5Xhm,:x",
"v=8za*8zb@txd@uka+jxy&xa7#aa2&xz--au&;au#7ax#qda.aaw@axuobkr@dz<=ff&=df@7dg#7ip@ix5.uxq$bb3&zz2&kk&7xi#2aa+7ga+puu.par#am<obm,,x",
"v==vz*wzboudd@ukp.uxq#zz6+az2=zz>-da-2da#6xx+7xu@puw+uxtobx9@ad3,fd&6vf%7dd#5as+jx5@zxq%xb4%uz2&xx$7xu%7uu.eai+pdy+pa7+gm<.hx>,x",
"v=3dz*8xdouxaouap+uxq#za6#ax==xz--da-2za$5zx#5az.puw@xxuogx9@dz<,dd&3dd%3ah#ras+aa6@jxq#ki3&zz2=xx&7xa#4au+edi+pdq#pu7+dx1.gm,,z",
"M>,xz*qxv@uka@ixp.wxq#au4+pa2&xx=;dd&4aa%5ax#eui+pyw@snt$xx9$zz<>gs&4ps#7sh#9ap+ad5+xcq$ix3&xx22cl=3xz#3uu#eda#par#sdq@dv3.hb>:x",
"x:,zv$8vx*rxg@ui7+aaq%xa6#ya2$zz=&ad&2aa#6ix#7du.uat@xxt@dx9$xv53zg&4ss#4dd+rss.ad7+xx7$xk4&xx=&xz=9vz#6duOega#yat+pw6#dx5+dv,=g",
"x=3xz=8zz@uxd@uip+axy#zy6#yx2&zz=2zz&2us#4dx#eiu.pzyXzxu@gv9=vx9>zd=,psO7dhoqus+aaq+jxq%xi5&xj2>zx=5cz%4au#eai%paw#ppq#pb9+hv==d",
"c,=dz*9xg@0xx@jup+tay+du5#yz2=zx==ax->pu#4bxoedu+pay@axu@dv9$xu8>gs&2ps#7dh%tas.ua5+ulq%ib5=xj>>cj=9xz@6du#eai$yxw#pap@px9.dv3=d",
"v>3dd*wxx*ubg@uxp+way$ii6%aj4=zz;2ai-2us$7xx.euu#yat@axu@xx9*xz8,gd%3asO5dhoydsoux7#jcq$dk7&xx>>xx=7xj%5du#eid#pat#paq#ax3.gv,=d",
"v>3dz$8xaoucd@uay+aae$di5$ax3%zx2&aa-2ts$7xx#edu.pat@xxt#gv9$vz9,ds&3gf+9ad$tas.uaq@jxq%ix7$kx22cx=5cx#6si#edu#say#pa7#dx3+gv,=d",
"z>,dd*9gz$txm@jae#uay#ka6%aa2$xz=2da%4as#7ax#exi+puw@axt#dmq$xz<,gd&3se%eag#tgs+ad7+kke$ax7$xl23xc=5xl%3uu%eii#yau+sp6#dv5.dv3=d",
"v>>zv*8zz*uxx@kue+tiy$xi7+az2&zz=6aa-;uu#6ix#rai+paw+axu@axt$vg5>vs&7ap#9xh$tas.yaq@ik7$ib3-xl42cj=9ck%4du#edu%yau@pp9@gb5+gv==f",
"v==dz*8zg@tcv$uue+uay$di7#az=&zz22xa-2ts#6bboeau+puw.azy@db9&vx<,gs=3dp#qzg$rap+uxa+uxq#kb3-lx22cc=9cx%6au#eud#ssu#sdw#dx9.vm,>s",
"f=3dv*8zv$tnv$zaeOaay$xi6+aa6=zc>>aa&6sp#6xx.eii#qzw.azw#dg9*vz<>gf=5ds+5gh%rxp+yxy@jjq@nb7-xc2>xc=5cz@5da#edu#pdt#pay#dz<Xgx>>s",
"d23dv=8xd$tmb@kup+die$dx6@az==zz2&aa&4uu#4dd#yua#azw@azw@mb9@xx9,ds&5sf#qzm$tda$jaa@zx5&xd6:cn,2cc=qcx%7dy+pdi-say+sdt$sx<Xgv,>s",
"d==dz*8zv@txdojayoiie$ka6@aa6=zc2;da&2da%4db#exd#qzj@pzw$da9$mx5,sg&3sg%7gm@yas%xxy@zz7&xu2&xx22xx=5cz$5su%7di#eay#sdu#hM5Xgd>>s",
"d=3dz=8xv$uxb@uup.ixy$xa7+aa6&zv2-da%;dd#7bi.ead+pxjXgit@au3@bx92dg&5df&9gm$qxf#zxa@zzq&ib4>xx,2cx=5cx@7ua#yda%yay#pau#dM1.gv>>v",
"d=3dd*8xz$tMgoiap#xiy$ka7#aa6=zz2&sa-4dd&7ki.ekd+pxwoaiu$sa7&gd52fp&5dg#ebm#yga@zxq#zcq&kb4>xx>2xc=5nz%7au$eda%ydu+pay#ab9.vm>=d",
"v=3ag*9zg$tzdouau#kxy$xa5$wx==zc2-aa-;ui%4bb.eda+azw@ax9@gby$dz9>sd%6ag#rxm@yxf@zxq@zx5&bx5>nb33cx=qnz*7au%edi#psu+pay%dv9+gv3=v",
"d=3az*qxz*tgdoiip$uxe&zx6@aa3=zx2-au%4dd#7xk#eix@axw#ziu@ga9&vx52df%3ad#rxh%uzd@axq*zx5&bx5>kc23cc=8cc@7du#ebd#sdt#psr$dv9+vv3=g",
"g=,dv*8xd$tmgouus#kxy&ki6+pa3&zv2&aa&;da-4il#eiu#yuw@azw$hir&gx92pf&4ud$rgh%udf#axy$xx7&xk7:xc2,cc=5cl&7du#ehd#udt#par%dbr.gm,:g",
"d=5zv=wxx*txd.uxu#ixy%xu6#aa4&vz2;aa%2pd#7kk%rdi#sxt@daw$dir@gx92df&3ss%rhdordu$xa7$jx7&bk7:kn34cc=qcx&6ua#ydu#say+pht#hM7.gm<>d",
"g>3dz*3xd@tzh#ias$tie$bu4&au4&xx;;py%2pd-4bx#ydd#pur#dzw-idr@xm92gg&4ad#rhhotdp#aky$xx9&bi7>bn24cc=9cc&5uu#eia%sdt%uaq%vb9$hm3>d",
"d>,df*8zd$yxa$uxs.uir-du6%au2&zx;;sd%2aa%4xi.eui#eau@dxw$ddr*bv92ff=4sd$rbhotxs%aie$xxq%xd5-xn34nn=9cx&7au#ydx#pay%pd9$gm9.hm3=g",
"v==vz==vz$yzu$yxp@uae$da6+da6=zx6&dd%;fg-4hk#yxu+pzw@dxt$dd7$an1>fs&4ah%ybhotda#xi7$xxr$xi42nn3>nc=0cx&5aa$yax&pay$aay%sv8+vm3=v",
"v==vg=qzv@uxa@uzy%uae$ba3#da6&xx&%dd%;fd#ebi+yai+aaw@zxy$aur*gM<,gf&edd#9bg#tgu#aiy%xxe$bb4>nn42nc,9cx&5aa%yxa#pay%sar#dc5.gm5=d",
"f==vp*8zm%tds#uzp#upe$xi6&du2&gx;;sp%;aa%7bd+eai#pau@dxy$dar$bn92ff%esd#rhg#tap#aiy$xxy$kx4>cn4>cc=9cz&5xa%tux#pzy@sdr#gv9.fv3=g",
"v==aa@qad&tgd$uap+aa7$xu3#aa4&xa;;ss%6aa%7xd+7ai@qzw@dxuoha9&xc9,df-4dd%tdg#uap#uuy$xx7$bi2>xc,,cc>9cx&5au#yxx%pdy+sfy$dm5#hh3=d",
"f==vp*=zv$pzd$iiy+ya7$xi4#ui4&gx;;fd%;fd%7xz+7ua%paq@azp@zdq&xx8,gf&5gd#rhh$tas#uk7%xx7&ba5-cx=2lc,9xj&qau*qza%uay#ppw#gv9.dh,>g",
"v==ap*wzv$pza$axp+yae#di7#ui2%iz;;dp%6vd%5xz+euu@paw@zzw@ad8$mx52gf&5af$rhg.7as.uiq#kl7@xa4>zx22cn=5cu%5uu#paz%paw#psy@vv9.hh,:d",
"z=3za=8av@qva%kup+uue$dxe#su2&av2;da%2aa%evx#7aa+paw@azp@ddq@xu93gg$5sf#rgd#rap+ux7@ux7&xb5&xx22cn=qcz@5yz#exx%pau#ddq@vn<+hm,=d",
"v=3vd$qav*wzsXuiy#aae$xa4#au2-gx2&dp%2aa#ezk+yiu+pz8.pzw@gdq&xa34ds%4aa$rgg$uas@aaq@kk7&bi3>xc=3cn=wcz%7du%pda%aat#sdy#vb9@gb2:d",
"g=<ad=wad$tbs$ixp#zxq&du4#aa4-vx&;pa%=pa%exu+pdu+azw@azp=gx9*gm<2sf$4ad%tgg#uas+xiy$xl5$bi3>xc32cc=qcx&5au#eaa#say#svy#vv5@gm,:s",
"v=3xg$wzd$uxa$uiq#zx5&xa4-ud-:zx;;aa%6aa#exx+pat+faw@zzw=da5*gx3>sf&4af#yxg+tdp#ai7@xx5-bi7>cc43cc=qcx&6ua#yga#say#yzy@vMw#vm,,d",
"f=3ad$wxd#uxa#ixp@wzq&vu;-uu>2ad;;fp%6fa%edu+puu+aaq*va==da9*vv,4dg&4sf$ygg@udp$xiy@lx7-bd4>cc33cc=qcx&5ua%yad%uat+psq%vM9#vm,>d",
"d=8dd@wza@yxs#jxp#azq&xa;-du;>xx&;gf+6pa+evu+pau+aaw@vzp=dz5=mm3-fd-4dd#rbm@uzp$aay@xx7$bi4>xc35cc=qcc&5ua#rdx#pay%pd9$sn5#mm,,s",
"d=3ad*9zu$uxu#ixyXii7&xu2$aa=2xv-4ds#6as#exi#pdu+daw$gg9$dd<:mn,-ff->ff#rbmouhu#axy$xxy$bi7,xn5,nn:7cx&5ua%7xx$pau%sdy%dm5.xm,:d",
"d=8ad@0zg@uxy$idy%ax7-za2%aa22zv-;su%6aa#ybi pit@saw@dx9-hi5&dn>:fs-6dh#rhhords#aieXlx9%xd4-cn,,ln,9ck&5ux$yai%yar#dsr$ub5Xhm,>g",
"f&3xd#8xgXuas#xiy%aa5&vj=&dd=2xx--ssO6uu#ybi#pdu+su9@xx9*id<:mn>-hf-7da%rbho9gu#uiy$xxy$bd7:xM5>nn:5cz=5ui%7xi%pap#sdp%dm5.gm,>a",
"d=5da#qxv@uis+xiq#ua5&xu2=dd;=zz-;fp%6su#ybi#edy+au9&vx9-hi,-bb,-fp-7dd%7hhorsp+uip@xxy#xd7:xm5:ln:9cx=5kj%yax$ugt+pdr$hm<Xhh,>g",
"f&5ap@qdd@uxp#ii7#da5&zi2&fd2;zd-;heO6ps#ebu+eau$uaq*zx9ohd<>xM,-hs>5gg#qxv#tsa+aau#lx7oxi4-bl6:cc,5cz=3ak$yxx%pau+psy$dm<+hg>:g",
"s&3ay%9ds%ikuoiie#uu5%ga6%ad&2dx-;si%6suOyduOpat%ad9$dd9*da,>vv>-hs&,gg$7vv#yad#ua7#xky%bi7:bk6>lc35cz=5ui%qxx%uauOpsr-hb5.gg,>d",
"d=5ap#qgsoiis#xke+ua6&da2%ad>2dx-4sy#edy#pbi+yat%aa3*xx<&dg,>vv=-ha&2ag$qvv#6dp#uaq@jxy#bi4-xx4:cc>3cj&6uk%yzx%yay#psy&dm9.hg,>g",
"d$9ad#wzd#uxu$xi7$aa5-xd2%aa&2dz-4su#edu#udu+pdt@sa8&xa<:gg3,zd=-gs&3ss%7xv#8da#yaqXuxy%kb7$xl,-cc>4cz&2uu%5ax%eau#pay$dx<#gb>>a",
"f$8dd@wad#uxy$ii7%ak5-xi;&fu&2ax%;uu#estOpdu.rarXaa3*xx9*md3>dz==gf&3fd@5aho7us+uzq.wxy$xz5$xx2&xx>3nk$4uu$7aa$papOpaq+gx5$dg>>a",
"g&3ad@wza+ugs#ii5$lx5&xa&&da&2za%6sy#6uu#yhu.yxr@da<@vx<*md>>dd@=da&2pa#7ah.9aa.uzp.wxy+xx6&zz2&lx-,bi%-ua#6za+eap+7p5+sx9@gg=3z",
"d&3aa@wza$ixu#ua5#ak5&xu%&aa$2zzO6suOepu#ehu+sxrXda<$vv<=mz>>dv$&gd&3pp#5ddoyad.uzq.uzyXxx5@az>&ix&2bi%2aa#5ax#ppq+pq7.sv5odv>,a",
"z$3za@wzaokie#ii6#xx5=xa&&aa$2zaO4uuO6uu.rdu.fxrXga9@zx<:mv>=zg%&gf&=ap+9aho7dp+uaqXjzq+xb6#zj2&xx>2bi#-ad+7sa#7pw paq#sg,@bg:,d",
"z*8wa@waaouiy$ui7+lx6=ai&&fz=3zxO4id#7ut.edt+adt@ga8@xx8:mx>=dv$&df=3dd+5ag$<as.ux5.ukeokx<%jj2&xk-2xi%,qa+6ad#qyy+yp7+sx<$as*,a",
"g$3aa+0zu.uke@ix6+uk2&au&%aa$=zz#4ud#euu edu.saw@gw5*xx<*xx>=dv$=df=3ff#5ag@5is.uz5+jxe.bi4$uj2=xk:3xi%2pa@6aa#7yt.pu9+sm5.gd>>x",
"d$3aa@9za$kiy#aa5#uk5&ua&&aa&=zz#7ua#eui.edu.paw@dw8*xx,*dx>=xx&=ss:=dd#3ag$7au.uz5+jxeoxk4$jj2=xx>2xk%>qy#3au#ydyO7a5#sd5Xgg=,x",
"v$=aa@wzaXiau%au6+ki4&ia=#pa&6zz#4ua#eyu egu+paw.aa8*xx1&xx>,xx*=gg&2dp#2dg$9us yaqXzxroki7$xj3=lk*,xx$2ay@qaa%qaq+pa9#sv9Xgg==z",
"d$3aa@0zd@uxy$ua7#dz3&ia-&ua&2zz$4ax+6uu edu.yhr#au9@xx<$bb:,xg$=gd=3dp#5ah$5up.yay+acw@kk7$kk>&xj>3xx%4iu#7aa%eaq#pty+sg5.gg$:d",
"z&3au@0zaXjja+au7+az3&aa;%ui$2zx#3ux#7uyOpbu.sur.da9*xb<*xx:,dx&:ds=>df.<db.wap+ua7+uzq@kb7$bk,*xl>5xa&;su#7au#eaq+psy+sx5#hg::a",
"z=8aaX0xa+uxa#au5#uk6&aa;&uz=2jz#5uz+7ay pbt sit.aa9&xx<&xb,,ix@&dg&=ap+3hv@qaa+tdy.uxq@kk7$xk2&lz>,xl$2du#4di#eay+euy.sx5odg:>a",
"v@3xaX0za@jxu$ai5+xk6&xu-=zk&>cx#5uz+7ya exu.pat.da8*xb<*xx,,bx&$ga:=dp+3ago7as.ua7.jxy@ki7#lx,-lj>,bk#4su#4su#edq+et7.sx5odg*-u",
"f=3ad@0zuXjxaXxi7#ux7$xi;&zj&>zx#6zu.7ay rxu sir.dy8*xx8*xm>>xx*&vf=6df@<ig$ras ya7.uky#ii7okk,&cc*=ck$;uy#4iuOeut+pa5.sx5odg::p",
"d@3ad@wzuXjxa#xu7.uk7-xa>%zj&2zz#5aa+5yy ydu.sat+dz8@vx3$gv:,av*=zf&=dp#5dm.9as.uxy.uk7+ib7$xk,-zc=3xk&>iu-4si#euy#ey5.ab4.ag$-y",
"v$3ad@9za$jca@xu7.kk3&xa;$aj=3zx@7az#5ya.pxi.sat.dz=@xx3@xm,>ax*=gd&=gp#7dv$7dp.tky.uiy.ux5$xx,-xz33bl-;uiO4ui#eay+pa7.px5Xgd->a",
"d*,dg@9za.knaXkj7$xk4-xa;&xx&=zx$5az#qaa.pxu.ssu+zx8@zx8*mx,,xv@=gg==ap+3dxo9is.uxu.tuy+xx7$xc2&cc=,Mk$;uu#4uu#eatOyay.px<Xgg&>p",
"s@3az@9xdojxioluy+xk5&xi2=zz=,jx$3aa#7yt yxi.pur.dx8@xx8>mx>,vv$=ga&>df#5xmo7is.rku.uj7+xx7$kb4&xc=,ck&2au#7uu#eptOpuy.fd5Xdd&=a",
"d=,av@9kd@ili$kke+xk3&ld&=zj=3jx$7du.edu+ybi.udt.dx8@dz3*xg>:xm*&ga&>ad#5dmorad.uiy.jz5@xu4%lb,-cz=,ck%5au#6ui%euy+ysyodx1Xgs==d",
"z=3av@9lxounuXkiy.xl7-ia;%az==xc&6ga#7du+pbu.siu+ax0$az8@ga=>xx&-fd-,fg%5dmorad.uua+jzq#uu4#lb2>xc=,nj@7uu#7di#ypu+euy.am9.gg:>a",
"d$3dxX9xgXjnaokxy@cx3-kx>&zz=2zx$2auO7ddOyxu.siu#zx8*xx6$as>>xx&-gd$>dd$5dhords.uxy.zx5#hi7$kk2>cz=<nl%3uu#6ud#eay+ysy.sx9Xxx*>a",
"d&,ag@0cdXjldXxkr%xl3-xa2&ax&2xx&2aa+6uu ubu.hir.fx8@zx9$bm,>xx:&ds=3ad$5bmo9da#tay.ulq#ki<-kx4:cc>3nl$3aa#6du+eau+pay.ax5+xv::s",
"z><ax@txxoixa#kkeoxx5:ba2&jj&2xc%4sa#7au.ybi.sir+da8*zx5:bg,,zb*-ds=3pd#7xgords.ui7.zuq@bi4-lk4>cx>3nl%3au&7ai+eat+esy#sb9.xg:>a",
"a&,av@txdojxa@axy#cc5-xi3&zz=>xx%;ap#4uioexr ixu@az8*xz9:gd<,xx>$ss&&ado9hxorga.iie.zjq+bi4$kl4-lc>,lx$5da#7dx#eay+pay+sx9Xgv:=x",
"d*<xxotxxoubuokxeoll5$xa2&zz-,xx-2ap#4si#shuohir@aa9@dx5*ax<>vM*-sd&>sg%5bb.ras.uiy.jx5#xi5-bx,>xc=<nl=3uu+7di#paw+edr#dx7Xgv>>a",
"g*3xd@0xaounuXkkr.kx7$bi>-zu=2zx--iy#7su#ebi+ady@dz8$vx3-ii,:bb:$fs&2sa&5dx$rap+uuyXjx7#xi7&xn4:cl*3nl*2yj#7ai#edy#eau#sb9Xgb:,a",
"d*3vd@0xiojxaokxp#jx9$bu:-zu=2jx-;yy#4uu.ybt+pat.dz0*zx3-ib,>MM:-fs&-sd%rgm@9ap+yuy.uky+xk3&xx3-nc>3ln&3ai@qxx#eit+pa7osb9.hm>:g",
"d*,zx@8xioubp.kxq%lx7&xi-%az=>xc--syO7sd#pbt.axy+aa8*zx3:dx<:bm:$fd--sg#5bm.rap.uxy.kxq+ak4&xc5:nn:,cx*3ui#7ix#yat+pa7+ab7Xhm::s",
"f=<az*8cxouxa$kxy@zj7-xa;$kx=>xx-4isO6ii.ybu.azu.da8$vx8:dd<:MM:-sf&,sd$<xmo9ip+uuy.kky%xi5*xc3*nl,,nx$5uj#7ix#yaw+pay+sx9Xbm>:x",
"v==zd@wxboiku#xky+ik7&cj2&zz22xd--eyOesu#exu.uau.az9@xx9*db<,MM,$he-6sd@4xm$3ap.tuy@jzy+xi4-xn5=cc:,ck&,zz@7zx+pat+pdy+sb5Xgm:>d",
"a=8aa@8adouxdokke+du3$xu=%az&=xx-;he-4ii#ehi yar+az9*xx5:db,,MM=$hs-3ss%5bh.qda.yay.xkt#xi4$xx5*cc>3cl&2zj#qxc#yau+pxu+ab9Xgg:=g",
"g=qza@8xdoibd#kxy+uu4#xi2%aa&=xa#;siO4uy.eht.pdu+pj9@gx5*bx,:nn=#hs-2gs.5xg#5ap.way+xjy#li7-xl2*cc>,cj%3zz#qxx#pau+pdy%gx9$gv>=v",
"a*=aa$8cx.ubsobky.au7-bi2%dg&&vz-;isOehy.ybi.yit.du9*xx9*bb,,xx>#hs$>ago5gh.5ap.yaq+kx9obk,-bk,-lc>,cu@4zu@wjc#pau.pay+gbr@mx>=x",
"z==zz@wxvXjxs$kky@uu7$xx4#az&-zx-;sy#6si+pxu.pxy+aa8*zx9*bb,:xb=#hs&>as#5zg+3ap.taq.azq@xx7olb>-ln,,cu#2uu@qkx$uzw+ady@gn9omb==x",
"v=3vaXwzv@uxu.kky.xu4%xx2#za--dv-;uuO6uiOpxu puu.aaw@vv9obb,:bx>-sd$>ss%7xg+9sp.uz7.jzq@lk5-bx,-cn=3ll$3zj#qkk+pay+pdtXmM1omm,=x",
"x=3za@9zxojxiokke.xu7$kx2@zz>-xz#;at#4sy ezu qay.az8@vx1*bb<=xx=#sd&>ad@5gg+7up.yxq.jzq$xb5$kl4-cn=8cl%4zj#5xx+pda.pat.xn9oMb,>x",
"v=8va*9lboubiokxy#lj7&xx2#uz&-dx-;as#4du#exy.pat+aaw#zc0*bb,,vM>-ip-=gs+3xg+5as+uzq+jxp@xb5-lb<>cM=5cz@2xz#5aa+paa+say.mMtoMx>=d",
"m=3xd@9zbouluokky+xx7%xk2+zz2;zx--yuO6ieOehi+7ay+azw@zx9*bb<>xm,&gf=-ss&3zg+5up+ujq+jlq$xb5$xx4>cc=3cv$3zj#qau+yaa+aat#gb9@mM:>d",
"x:5va@9jnouxa#ibe@xj9%bk3@zz>=xm$4da-6ei.eiu.yat+pa9@dx9*bb<>bm>$hd&>sd&5gv@wyp.uzqXzzq$bl9:cz2=cn23cc%2zj#qjk+pdy.pa9.gn9@mM>:b",
"b:,xxX0xb@ubd.iiq+zl7$cx4%zz2>xb-;su#4ii.ehu+eu9.paw@vx5@bx,,dd:&gg&&df$3vv@9ap.uzy+xxq@cx9&nk-&cz=5xx%5zz@qkk.yww.pay.db9omb,,g",
"b:<ba@9xx$jxdodkq+jx5=xx2&xa>>xx-;du#;ui 7xu+yay.paw$zx9*bb,>xd:&vg==pg#5gm@taa+uua@zxq+xx7=nk,&cc=3xx%3zu@qkx@paw pst#mM9.mm:>g",
"c:5xxo9xbokxsokdp+zj7$nx,#uj=2zv&6py#2aqOpdu.yur+yxw@dx9$mx<=dg=&gd=2ff.6vv.9aa.yiuXkxy#xx5:cj2&xn,4xi%4aa#qjx@adq.pza+gxy$mm>:g",
"m=8xx*9cbouxa#ix7#xzr$xk>#ja>&zd%2ap#6aqO7zu.pay.pz0@ax1@xx<=dv=$vd==da+qzvXuis.uipXxju@xx7-xz2=xb:<kx$2ax#qja@pap+aat+gxrobm,:a",
"b:8xx$9mx@ibsouay+xl7$xx2#az2&zx&2aa#6aw+exx.yiu.pa9Xag1$bz5=xv==gd=3fp@9gvotis.tkyXcjy@lc9&zc4=lx,2bx&6zu@exj+paa.pay#dxr@gm,:g",
"M:8vv$9xb*ubs.uxu+ju7&xk2#zz>-xv%2aa#2qp+yxz@puu.px9@gx9$bv,=dv=&hg==pa@5xm.rxd.uxyXjxy%xx7*xx4&xc:4bk$4za@ezx#paq+pxy@gbr+gm,>m",
"M:9xv@9xbojba.udp.kx5@ck2%zz2&dv&2aa%3yu+pbu.pxt+auwoxxr@bg,=zv&&gf==vg%3bb.thd.ujw.zxq#xl5=vx3&xn>7xi&4ax#qxx+pda.pat$xb5ohm,,m",
"b:5xa*8xxojxsotgy+kx7&xj3@zz=2xv&2aa%6da+6xu.sat.su9@ax9$xb,=vv==vg==gd#7dh$tba.juy@zxq@xx5=xc4&lx>5xi$6az#qzk@pxa+sgu@gbrodm,:m",
"b=<xa@1xkXixs#uiy+ak7&lz6%za2=xv=2zu#6aa+6gi.pxt+aj9@xd9@hx,=vd*&vg=3ad@5bm.1bg.jjy@czq@cc7=cx>&xc>,xx&2ax#qxk@paz@axu#sbr$hm,-m",
"b>3xu*9bbouba.ikp+xx7&la2%ad==xz&2aa#3au+pxi.yxu.pz0odxr:bx,=vd==gg=5xd%5dmo5kdXjzy@xcp$xx9>nx3=xx:5xz&4wx#qkx@pxy@ssa+sdr#dm3:v",
"m>3xa@0cx$uxd#uxu@jxq@xx2+aa=2vx&4au$5au+exi.ylu.az0@xxt$vv<=xx&=gv=3dd#9bv$wax@uzyXczp@bx7:xx2>xn,4bk$6ux@yzx%axa@ssu#dbr.dm,>b",
"b=5xz*tnd$rxs.kxa@zj9*cz3#au2=xv-2du+6uu+ybi.qzj+pz9@zx7*xx9>xd,=gg&,dd&5gmX9ad@uzy*zcq@ll9&cx2>kn,5bk$7ux$txx$axu@say#ghr.gM2:h",
"x=<zz$wxb$ikd#ikp@jxq%xz2#xa;2ax--xu%2ui.ebi.yau.pzw$xx9*xx<>zg==gg=3dg$5xm%qas@azq@ccw$bn5:xx>&kn>3bx%7kx%yxjXaxu+ast$dby$gm,:g",
"m>,zv*9xbotbhouka@xky:xz4%az22zz-2aa+3ax#exa 7ua.aaw@xx9*mm<=vd2=gd=,as$5xh@qyd#axq@zcw+bl7=cx22xx>5xi$4xx@ucc@aau#ssy+sbr$hm,:h",
"v=3vd$wxx@ubg.ulp@zzq$xk7$gu&;gx-;dz%,ua.7bi.7aa#pxw@gx1*xm9=vv=&gg=3as@5av$9as+uzp@cxt@nlr-nx2>bk,5bk-7xk$tzc@pxa+sgt#gb9%gm,,b",
"v=3zd#wcg$ukg@jxa@jzq=cj5$ad2&ag;2ax&4su#7bu.7aa.azw@xz9*xM9=mv2=gg23gs#9gv@9us#yza@zxy$nnr:nx=>kx>7bx-4xx$yzx@dxa&day$sbt#mm5:m",
"x>3xa*8xborxg.uxa@zxy$xj6#du--xm--ax%3au%exu.paa.pzw@dx0@mv9=Md=&gv=3ss#7xm$7uu+uza@zcy$nn5:cx->bl>7bk%-xx$qlz@gxa#duy$gMrXxm,:m",
"h:3vd@9xx$rbgojxa*zzw*cx5#aa2-xg-;xa$4uu.eba+qyy.pzw$xx9*MMw=md2=gv=3hg%9xm.qpp#uap@zzy$lny:cx2>nk:4bb%4zx@wzc@dxy@gsy+gMr$vm,:h"
};
